<svg id="_1" data-name=" 1" xmlns="http://www.w3.org/2000/svg" xmlns:xlink="http://www.w3.org/1999/xlink" viewBox="0 0 711.99 745.01"><defs><style>.cls-1{fill-rule:evenodd;fill:url(#未命名的渐变_75);}</style><linearGradient id="未命名的渐变_75" x1="593.7" y1="33.31" x2="88.83" y2="907.77" gradientUnits="userSpaceOnUse"><stop offset="0" stop-color="#f7d5b0"/><stop offset="0.4" stop-color="#d7ae83"/><stop offset="0.68" stop-color="#d3a87b"/><stop offset="1" stop-color="#eccca8"/></linearGradient></defs><title>电影榜单主标</title><path id="矩形_1_拷贝" data-name="矩形 1 拷贝" class="cls-1" d="M335.78,700.4c2.51-1.66,6.78-4.69,9.13-6.62,1.59-.09,2.42-.28,3.1-.92l-7.37-8-4.27,4.69h-7.45a82.88,82.88,0,0,0,8-8.65c1.84.09,2.84-.64,3.18-1.65l-10.63-3.68c-.67,4-2,9.75-3.18,14H305.65a27.84,27.84,0,0,0-.83-4.14l-1.34-.09c.16,3-2.1,6.71-3.94,8.18-2,1.29-3.26,3.59-2.34,5.89,1.09,2.76,4.52,2.76,6.28,1.2,1.59-1.56,2.59-4.41,2.42-8.37h30.8c-.67,2.58-1.42,5.7-1.92,7.64ZM317.19,694a20.35,20.35,0,0,1,3.77,9.38c6.19,5.43,13.22-7.26-3-9.93Zm-9.61-17.29a25.36,25.36,0,0,1,4,10.85c5.78,5.61,13.06-6.81-3.1-11.31ZM313.85,660c2.26,2.48,4.69,6.9,5,10.67,6.7,5.42,13.22-8.93-4.36-11.32Zm28.3,15.27C344.28,675,345,672,345,672H300v3ZM288.83,684h11.3C301.3,684,303,681,303,681H289V659h-7.54v22.26h-11.8l.67,2.67h9.88c-2.09,13.89-5.94,28.24-12.22,38.91l1.09,1a73.81,73.81,0,0,0,12.38-18.77V744.9H283c2.76,0,5.86-1.84,5.86-2.85V696.62c2.09,3.86,4.1,8.83,4.44,12.88,5.6,5.43,11.55-7.36-4.44-15.45V683.93ZM334,705H300l1,3,10.09-.15c-.42,11.68-2,24.65-16.4,35.87l1.09,1.29c14-7.27,19.5-16.74,21.93-26.49h14.65c-.5,9.57-1.76,15.27-3.18,16.65a4.12,4.12,0,0,1-2.6.64c-1.51,0-6.45-.27-9.21-.55l-.08,1.29c2.93.64,5.44,1.56,6.61,2.76s1.42,3.12,1.42,5.42c3.68,0,6.53-.82,8.7-2.48,3.35-2.67,5.11-9.75,5.78-22.54a4.91,4.91,0,0,0,3.26-1.47l-7.36-6.62-4,4.23H318.29a65.24,65.24,0,0,0,1-8h24.94c1.18,0,2.77-2.85,2.77-2.85Zm49.08-43.35c3.66,4.3,7.9,11.07,9.07,16.74,7.74,5.86,13.57-11.44-8.24-17.3Zm1.91,48.4V697.7h15.9v12.35Zm15.9-26.81v11.81H385V683.24Zm23.81,0v11.81H409.05V683.24Zm-15.65,26.81V697.7H424.7v12.35ZM429,723H409l.05-10.29h15.64v3.75H426c2.66,0,6.57-2,6.65-2.74v-29.1a5.56,5.56,0,0,0,3.25-1.83L427,677l-3.14,3.59H411.29a87.23,87.23,0,0,0,14.57-13.91c1.83.27,2.91-.46,3.33-1.37L418.78,660a144.29,144.29,0,0,1-9.9,20.59H385.66l-8.49-3.93v41h1.16c3.25,0,6.66-2,6.66-2.93v-2h15.9L401,723H366l.76,3.34h34.13V745h1.5c4.08,0,6.66-1.92,6.66-2.47v-16.2h32.54c1.25,0,2.41-3.34,2.41-3.34ZM218.51,707l8.49-8.48,8.49,8.48L227,715.48Zm258,0,8.48-8.48,8.48,8.48L485,715.48ZM296,590V560h18l-.18,29.91Zm51.36-.09H327.19L327,560h27c1.58,0,3-4,3-4H327l.19-23.09h30.33c1.58,0,3.48-4.91,3.48-4.91H297a112.1,112.1,0,0,0,5.55-11c2.42.24,3.9-.75,4.42-2.23L289.59,507c-5.9,21.07-16.22,41.77-25.59,54.16l1.05,1.12a96.18,96.18,0,0,0,29.28-29.37h19.49L314,556H297l-14.89-6.12v40h-17.9l.85,3.6L314,594l-.18,31h2.52c7,0,10.85-3.22,10.85-4.21V593.51H360c1.58,0,3.05-3.51,3.05-3.51ZM401,530h75c1.5,0,3-4,3-4l-41.58-.16c6.55-3.72,6.44-18.44-15.77-17.83l-.85.75a37.51,37.51,0,0,1,9,16.34l1.28.74h-28L388.4,519.9v38c0,22.28-.54,46.79-10.41,66.22l1.18.87c20.7-18.07,21.89-45.8,21.89-67.09Zm25.8,35.32V549.48h16.95v15.84Zm19.1,7.55c4.61,0,9.87-2.22,9.87-3.21V549.48h17.59c1.5,0,2.9-2,2.9-2l-10-11.39L460.6,546h-4.83v-8.79c2.68-.5,3.44-1.61,3.65-3.21l-15.67-1.61V546H426.8v-8.79c2.58-.5,3.33-1.61,3.54-3.22l-15.55-1.61V546H402.24l.86,3.46h11.69v25.75h2.14c4.51,0,9.87-2.23,9.87-3.22v-3.1h16.95v4Zm2.57,9.9a58.1,58.1,0,0,1-12.65,17.09,45.14,45.14,0,0,1-18.67-17.09ZM456,574l-7.42,5.31H406.42l1,3.47h7.4c3.54,9.65,8.26,17.2,14.16,23-10.52,7.8-23.71,13.61-38.84,17.33l.54,1.73c17.7-1.86,32.93-6.06,45.16-13.24,9.44,6.68,20.92,10.52,34.44,13.12,1.18-7.18,4.4-12,9.76-13.87v-1.48c-11.8-.62-23.28-2-33.36-5.2a68.79,68.79,0,0,0,15.66-18.69c2.79-.25,3.86-.62,4.72-1.86Zm58,8V560h18v22Zm18-47v21H514V535Zm32,0v21H545V535Zm-19,47V560h19v22Zm40.3,3.8h-1.14c-2.39,9.11-4.25,16-5.7,18.46a5.29,5.29,0,0,1-3.84,2.09c-2.07.12-5.91.25-10.68.25H551.19c-5.08,0-6.19-.79-6.19-4.6V586h19v9l2.54-.59c4.25,0,10.47-2.83,10.57-3.81V536.94a6.08,6.08,0,0,0,4-2.46l-11.93-11.07-5.8,7.63L545,531V509H532.11v22H514.28L501,524.76v70h1.87c5.18,0,11.12-1.27,11.12-2.75v-6h18l.11,19.61C532.1,618.3,537,621,549.73,621H562.9c22.29,0,28.1-2.59,28.1-9.73,0-2.83-1.24-4.55-5.29-6.4ZM669,548.41a131.62,131.62,0,0,0,35.43-26.93c2.29.62,3.34.25,4.07-1.11L694.5,510c-7.3,14.21-16.26,27.3-26.47,36.69Zm-.41,33.73a132,132,0,0,0,37.1-29c2.29.61,3.33.24,4.06-1l-14.38-10.63c-7.61,15.2-17,29-27.61,39Zm-37.93-50.28h24.28v9.51H630.61v-9.51ZM654.89,519v9.26H630.61V519Zm-41.06,42.13H672a2.55,2.55,0,0,0,2.81-2c-4-4.2-10.42-10-10.42-10l-5.62,8.4h-12.2c4.8-2.1,6.36-9.88-6.87-12.6h15.21V550h1.77c3.34,0,8.55-2.23,8.65-3.09v-25.8a7.43,7.43,0,0,0,4.38-2.47L658.85,509l-5,6.42H631.13l-11-5.31v42h1.56c4.27,0,9-2.47,9-3.71V545H637l-.31.25A15.28,15.28,0,0,1,638,555a9.2,9.2,0,0,0,3.34,2.59H613Zm16.47,10.75h24.07v11.86H630.3Zm24.07,15.44v4.82H656c3.33,0,8.54-2.23,8.65-3.09V573.62a7.55,7.55,0,0,0,3.64-2.23l-10.21-9-4.69,5.93H630.92L620,563.24v30.39h1.46a11.14,11.14,0,0,0,2-.12c-1.77,7.78-5.42,18.28-10.31,25.2l.93,1.48c8.24-4.82,15.22-13.1,19.28-20.63,2.29.24,3.13-.37,3.65-1.61l-10.53-5.31c2.19-.87,3.86-2,3.86-2.6v-2.71h7.19v21.74c0,1.36-.31,2.1-1.67,2.1-1.56,0-7.4-.49-7.4-.49v1.61c3.55.74,5.11,2.1,5.84,3.7,1,1.86,1.35,4.82,1.46,8.4,10.83-1,12.4-6.42,12.4-15.07v-22Zm-5.11,6.92c3.23,4.57,6.78,12,7.4,18.41,9.49,8.52,19.07-13.47-6.46-19.15Zm47.83-18.53c-9.69,21.5-22.4,36.81-38.24,47.56l.73,1.73c19.28-7.54,35.12-19.4,48.14-38.55,2.5.5,3.54.13,4.27-1.23ZM21.53,611.29,48,570.9q8.46-12.78,7.94-26.08-.21-11.87-7.1-18.91-7.22-7.3-19.33-7-11.7.39-19.32,10.3Q3.11,538.67,2,553.94l1.67.53Q5.94,541,13,532.55t16.51-8.34A11.94,11.94,0,0,1,39.05,529q3.14,4.18,3.76,11.22a35,35,0,0,1-6,21.91L0,618.25H56.59l.15-7ZM122.84,549.9a59.09,59.09,0,0,0-6.27-18.39q-7.21-12.64-19.85-12.65T77,531.51a59.06,59.06,0,0,0-6.3,18.39,112.9,112.9,0,0,0,0,39.91A59.06,59.06,0,0,0,77,608.2Q84.07,621,96.71,621t19.86-12.78a59.07,59.07,0,0,0,6.26-18.39,112.9,112.9,0,0,0,0-39.91h0Zm-14.42,54.62Q104.23,616,96.5,616T84.58,604.53Q80,592.41,80,570t4.57-34.53Q88.77,524,96.5,524t11.92,11.46Q113,547.59,113,570t-4.57,34.53h0ZM163.68,517l-25.25,3.87v5.43L149,526l.38,94.2,14.3.22Zm70.46,13.73q-7.62-11.87-22.15-11.87-13.06,0-20.58,9.39-7.11,9.27-7.42,23.09,0,13.95,6.48,22.82,6.79,9.52,17.13,9.52,10,.41,15.68-8.47l.1-.13a105.45,105.45,0,0,1-4.92,17.34,71.57,71.57,0,0,1-18.17,26.74l1.15,1.83q16.81-6.27,27.58-24t11-40.57q0-16.29-5.85-25.69ZM210.89,577q-7.09.12-11.5-8.06Q196,561.69,196,551t3.25-18.19Q203.58,524,211,524t11.62,8.83Q226,540,226,552.59q0,1.5-.12,3-.81,8.83-4.18,14.54Q217.76,577,210.89,577ZM424.25,446.46v-6.59h-3.92l1.11-13.07h2.35v-6.71h-6.27v-4.83H410.2v4.83h-6.47L399.61,415l-20.48,4.43h0V442.9c0,14-.24,21.88-5.56,35h0l5.66,1.66h0a72.21,72.21,0,0,0,5.06-18.23c.73-5.45.77-10.82.77-18.4v-18.6l2.9-.43v47.46l-5.63.14,1.13,7.2h0l14.08-2.27h0l-1-5.33-3.4.09V423.1l2.9-.48v20.94c0,7.11,0,21.91,4.46,35.52h0l6-1.23v-.05c-4.41-13.61-4.41-28.54-4.41-34.91V421.71l1.39-.2v5.29h2.35l1.1,13.07h-3.45v6.59h6.74v8h-6v6.6h6v17.66h7.31V461.07h5.81v-6.6h-5.81v-8Zm-9.13-6.59h-3l-.68-13.07h4.34ZM376.67,459l.49-6,.07-.06-4.41.6v-7.1h5.57v-6.6h-3l1.1-13.07h1.18v-6.71h-5.34v-4.71H365.6v4.71h-5.9v6.71h1.23l1.1,13.07h-3.26v6.59h6.62v7.36c0,.2-.05.46-.06.74l-6.29.84h0l.78,7,5-1c-.55,4.7-1.69,11.13-4.07,15.17h0l6.64,2.93h0c3.33-5.66,4.58-13.82,5-19.68l4.19-.86Zm-6.46-19.12h-3l-.67-13.07h4.33ZM350.88,423H288.42v-6.8h62.46ZM340,456.71h5.4v-27.2H293.88v27.2h36.95l-4,14.25H312.37l-3.18-11.3H300l3.18,11.3H288v6.83h63.15V471H336Zm-37-6.83V436.34h33.2v13.54ZM536,0H176V55c30.38-14.2,62.23-21.44,95.83-19.84,38.41,1.83,73.63,14.17,106.6,33.4a348.63,348.63,0,0,1,87.15,72.58c1.09,1.24,2.08,2.57,3.73,4.61-9.33,9.1-18.38,18.34-27.85,27.13-23.41,21.74-48.76,40.82-77.39,55.24-3.14,1.58-3.31,3.27-2.52,6.31q16.08,61.29,31.94,122.64c.25,1,.34,1.95.51,2.93H536ZM323.26,286.12c-3.29-12.68-6.57-25.36-10-38.56-30.58,7.35-60.92,8.07-91.52,1.56-.54,1.63-1.08,3-1.45,4.41-4.44,16.89-8.81,33.79-13.29,50.65-4.95,18.62-10,37.22-15,55.82H342c-.26-1.62-.4-3.28-.81-4.86Q332.27,320.63,323.26,286.12Zm-11.55-90.26c29.6-9.48,55.43-25.7,79.27-45.31,2.37-2,4.67-4,7.23-6.17-18.55-16.06-37.86-29.85-59.88-40.44,6,47.9-27.89,84.89-69.73,88.93-41.54,4-89.12-31.2-83.83-85.91L176,112v66c3.54,1.78,7.1,3.53,10.61,5.36,40,20.85,81.63,26.43,125.1,12.5ZM289,116.11a26.83,26.83,0,1,0,0,.12ZM457,444H626v2H457ZM86,444H255v2H86Z"/></svg>